<?xml version="1.0" encoding="iso-8859-1"?>
<!-- Uploaded to: SVG Repo, www.svgrepo.com, Generator: SVG Repo Mixer Tools -->
<svg fill="#000000" height="800px" width="800px" version="1.1" id="Layer_1" xmlns="http://www.w3.org/2000/svg" xmlns:xlink="http://www.w3.org/1999/xlink" 
	 viewBox="0 0 512 512" xml:space="preserve">
<g>
	<g>
		<path d="M501.801,15.557H10.199C4.566,15.557,0,20.123,0,25.756v309.066c0,5.633,4.566,10.199,10.199,10.199h35.435v141.222
			c0,5.633,4.566,10.199,10.199,10.199s10.199-4.566,10.199-10.199V446.66h379.936v39.584c0,5.633,4.566,10.199,10.199,10.199
			c5.633,0,10.199-4.566,10.199-10.199V345.022h35.434c5.633,0,10.199-4.566,10.199-10.199V25.756
			C512,20.123,507.434,15.557,501.801,15.557z M445.968,426.262h-0.001H66.033v-31.458h301.978c5.633,0,10.199-4.566,10.199-10.199
			c0-5.633-4.566-10.199-10.199-10.199H66.033v-29.384h379.936V426.262z M491.602,324.623H20.398V35.955h471.203V324.623z"/>
	</g>
</g>
<g>
	<g>
		<path d="M415.719,374.406h-8.297c-5.633,0-10.199,4.566-10.199,10.199c0,5.633,4.566,10.199,10.199,10.199h8.297
			c5.633,0,10.199-4.566,10.199-10.199C425.918,378.972,421.352,374.406,415.719,374.406z"/>
	</g>
</g>
<g>
	<g>
		<path d="M203.398,70H95.4c-5.633,0-10.199,4.566-10.199,10.199v200.18c0,5.633,4.566,10.199,10.199,10.199h107.997
			c5.633,0,10.199-4.566,10.199-10.199V80.199C213.597,74.566,209.031,70,203.398,70z M193.198,270.18h-87.599v-79.692h87.599
			V270.18z M193.198,170.09h-87.599V90.399h87.599V170.09z"/>
	</g>
</g>
<g>
	<g>
		<path d="M416.6,70H308.602c-5.633,0-10.199,4.566-10.199,10.199v200.18c0,5.633,4.566,10.199,10.199,10.199H416.6
			c5.633,0,10.199-4.566,10.199-10.199V80.199C426.799,74.566,422.233,70,416.6,70z M406.401,270.18h-87.599v-79.692h87.599V270.18z
			 M406.401,170.09h-87.599V90.399h87.599V170.09z"/>
	</g>
</g>
<g>
	<g>
		<path d="M256,109.574c-5.633,0-10.199,4.566-10.199,10.199v11.172c0,5.633,4.566,10.199,10.199,10.199
			c5.633,0,10.199-4.566,10.199-10.199v-11.172C266.199,114.14,261.633,109.574,256,109.574z"/>
	</g>
</g>
<g>
	<g>
		<path d="M256,215.71c-5.633,0-10.199,4.566-10.199,10.199v11.172c0,5.633,4.566,10.199,10.199,10.199
			c5.633,0,10.199-4.566,10.199-10.199v-11.172C266.199,220.276,261.633,215.71,256,215.71z"/>
	</g>
</g>
</svg>