<?xml version="1.0" encoding="iso-8859-1"?>
<!-- Uploaded to: SVG Repo, www.svgrepo.com, Generator: SVG Repo Mixer Tools -->
<svg fill="#000000" height="800px" width="800px" version="1.1" id="Layer_1" xmlns="http://www.w3.org/2000/svg" xmlns:xlink="http://www.w3.org/1999/xlink" 
	 viewBox="0 0 512 512" xml:space="preserve">
<g>
	<g>
		<path d="M421.161,330.323c-26.523,0-50.424,11.429-67.046,29.618l-174.042-87.022c1.037-5.485,1.604-11.137,1.604-16.919
			s-0.567-11.432-1.604-16.919l174.042-87.022c16.622,18.189,40.522,29.618,67.046,29.618c50.089,0,90.839-40.75,90.839-90.839
			C512,40.75,471.25,0,421.161,0c-50.088,0-90.839,40.75-90.839,90.839c0,5.782,0.567,11.432,1.604,16.919L157.884,194.78
			c-16.622-18.189-40.522-29.618-67.046-29.618C40.75,165.161,0,205.912,0,256s40.75,90.839,90.839,90.839
			c26.523,0,50.422-11.429,67.046-29.617l174.044,87.022c-1.039,5.485-1.605,11.135-1.605,16.917
			c0,50.089,40.75,90.839,90.839,90.839C471.25,512,512,471.25,512,421.161C512,371.073,471.25,330.323,421.161,330.323z
			 M421.161,49.548c22.768,0,41.29,18.523,41.29,41.29c0,22.768-18.523,41.29-41.29,41.29c-22.767,0-41.29-18.523-41.29-41.29
			C379.871,68.071,398.394,49.548,421.161,49.548z M90.839,297.29c-22.767,0-41.29-18.523-41.29-41.29
			c0-22.768,18.523-41.29,41.29-41.29c22.768,0,41.29,18.523,41.29,41.29C132.129,278.767,113.606,297.29,90.839,297.29z
			 M421.161,462.452c-22.767,0-41.29-18.523-41.29-41.29c0-22.767,18.523-41.29,41.29-41.29c22.768,0,41.29,18.523,41.29,41.29
			C462.452,443.929,443.929,462.452,421.161,462.452z"/>
	</g>
</g>
</svg>